<svg height="512" viewBox="0 0 128 128" width="512" xmlns="http://www.w3.org/2000/svg"><g><g><path d="m110.906 84.366a1.751 1.751 0 0 1 -1.75-1.75v-9.6a1.75 1.75 0 0 1 3.5 0v9.6a1.75 1.75 0 0 1 -1.75 1.75z" fill="#c5c9f7"/><path d="m1.75 97.306v19.048h6.806a8.837 8.837 0 0 1 8.837-8.837h53.45a8.837 8.837 0 0 1 8.837 8.837h6.806v-19.048z" fill="#1689fc"/><path d="m79.675 82.616v-29.266h-6.806a8.837 8.837 0 0 1 -8.837 8.836h-39.832a8.836 8.836 0 0 1 -8.836-8.836h-6.802v29.266z" fill="#1689fc"/><path d="m7.75 82.616h72.736a6 6 0 0 1 6 6v8.69a0 0 0 0 1 0 0h-84.736a0 0 0 0 1 0 0v-8.69a6 6 0 0 1 6-6z" fill="#e1e4fb"/><path d="m8.283 47.665h7.363a2.842 2.842 0 0 1 2.843 2.842 2.843 2.843 0 0 1 -2.843 2.843h-7.363a2.843 2.843 0 0 1 -2.843-2.843 2.842 2.842 0 0 1 2.843-2.842z" fill="#0059aa"/><path d="m79.953 47.665h-7.363a2.841 2.841 0 0 0 -2.842 2.842 2.842 2.842 0 0 0 2.842 2.843h7.363a2.843 2.843 0 0 0 2.847-2.843 2.842 2.842 0 0 0 -2.847-2.842z" fill="#0059aa"/><path d="m24.128 70.42h11.99a8 8 0 0 1 8 8v4.2a0 0 0 0 1 0 0h-27.99a0 0 0 0 1 0 0v-4.2a8 8 0 0 1 8-8z" fill="#c5c9f7"/><path d="m44.118 70.42h27.99a0 0 0 0 1 0 0v4.2a8 8 0 0 1 -8 8h-11.99a8 8 0 0 1 -8-8v-4.2a0 0 0 0 1 0 0z" fill="#c5c9f7" transform="matrix(-1 0 0 -1 116.226 153.036)"/><path d="m95.563 82.616h30.688v17.307h-30.688z" fill="#bf6015"/><path d="m95.563 99.922h7.938v16.432h-7.938z" fill="#994c0f"/><path d="m118.312 99.922h7.938v16.432h-7.938z" fill="#994c0f"/><path d="m114.344 93.019h-6.875a1.75 1.75 0 0 1 0-3.5h6.875a1.75 1.75 0 0 1 0 3.5z" fill="#fedb41"/><path d="m116.467 58.768h-11.122l-3.002 14.25h17.126z" fill="#fedb41"/><circle cx="44.118" cy="24.584" fill="#00ddc1" r="12.937"/><path d="m47.594 29.81a1.741 1.741 0 0 1 -1.237-.513l-3.476-3.476a1.752 1.752 0 0 1 -.513-1.238v-4.937a1.75 1.75 0 0 1 3.5 0v4.213l2.964 2.964a1.75 1.75 0 0 1 -1.238 2.987z" fill="#e1e4fb"/></g><g><path d="m65.563 95.556h-5.063a1.75 1.75 0 1 0 0 3.5h5.063a1.75 1.75 0 0 0 0-3.5z"/><path d="m81.425 80.928v-26.092a4.58 4.58 0 0 0 -1.472-8.921h-7.363a4.584 4.584 0 0 0 -1.619 8.876 7.1 7.1 0 0 1 -6.939 5.645h-39.832a7.1 7.1 0 0 1 -6.938-5.646 4.584 4.584 0 0 0 -1.62-8.875h-7.359a4.58 4.58 0 0 0 -1.471 8.921v26.092a7.758 7.758 0 0 0 -6.812 7.688v27.738a1.751 1.751 0 0 0 1.75 1.75h6.806a1.751 1.751 0 0 0 1.75-1.75 7.1 7.1 0 0 1 7.087-7.087h53.451a7.094 7.094 0 0 1 7.086 7.087 1.751 1.751 0 0 0 1.75 1.75h6.806a1.75 1.75 0 0 0 1.75-1.75v-27.738a7.758 7.758 0 0 0 -6.811-7.688zm-8.835-31.513h7.363a1.093 1.093 0 1 1 0 2.185h-7.363a1.093 1.093 0 0 1 0-2.185zm-48.39 14.521h39.832a10.6 10.6 0 0 0 10.442-8.836h3.451v25.766h-4.067v-2.446a9.761 9.761 0 0 0 -9.75-9.75h-11.99a9.742 9.742 0 0 0 -8 4.192 9.741 9.741 0 0 0 -8-4.192h-11.99a1.75 1.75 0 0 0 0 3.5h11.99a6.257 6.257 0 0 1 6.25 6.25v2.446h-24.49v-2.446a6.2 6.2 0 0 1 .534-2.531 1.751 1.751 0 0 0 -3.2-1.421 9.692 9.692 0 0 0 -.834 3.952v2.446h-4.067v-25.766h3.451a10.6 10.6 0 0 0 10.438 8.836zm21.668 14.484a6.257 6.257 0 0 1 6.25-6.25h11.99a6.257 6.257 0 0 1 6.25 6.25v2.446h-24.49zm-37.585-29.005h7.363a1.093 1.093 0 1 1 0 2.185h-7.363a1.093 1.093 0 1 1 0-2.185zm76.453 65.185h-3.45a10.6 10.6 0 0 0 -10.442-8.837h-53.451a10.6 10.6 0 0 0 -10.442 8.837h-3.451v-15.544h47.344a1.75 1.75 0 1 0 0-3.5h-47.344v-6.94a4.255 4.255 0 0 1 4.25-4.25h72.736a4.255 4.255 0 0 1 4.25 4.25v6.94h-9.517a1.75 1.75 0 0 0 0 3.5h9.517z"/><path d="m126.25 80.866h-13.594v-6.1h6.814a1.75 1.75 0 0 0 1.712-2.111l-3-14.25a1.75 1.75 0 0 0 -1.713-1.389h-11.124a1.749 1.749 0 0 0 -1.712 1.389l-3 14.25a1.751 1.751 0 0 0 1.713 2.111h6.813v6.1h-13.596a1.749 1.749 0 0 0 -1.75 1.75v33.738a1.75 1.75 0 0 0 1.75 1.75h7.937a1.751 1.751 0 0 0 1.75-1.75v-14.682h11.312v14.682a1.751 1.751 0 0 0 1.75 1.75h7.938a1.751 1.751 0 0 0 1.75-1.75v-33.738a1.75 1.75 0 0 0 -1.75-1.75zm-19.485-20.348h8.282l2.265 10.75h-12.812zm-9.452 23.848h27.187v13.806h-27.187zm4.437 30.234h-4.437v-12.928h4.437zm22.75 0h-4.438v-12.928h4.438z"/><path d="m107.469 93.019h6.875a1.75 1.75 0 0 0 0-3.5h-6.875a1.75 1.75 0 0 0 0 3.5z"/><path d="m44.118 39.271a14.688 14.688 0 1 0 -14.687-14.688 14.7 14.7 0 0 0 14.687 14.688zm0-25.875a11.188 11.188 0 1 1 -11.187 11.187 11.2 11.2 0 0 1 11.187-11.183z"/><path d="m46.357 29.3a1.75 1.75 0 0 0 2.475-2.474l-2.964-2.964v-4.216a1.75 1.75 0 0 0 -3.5 0v4.937a1.752 1.752 0 0 0 .513 1.238z"/></g></g></svg>